<svg xmlns="http://www.w3.org/2000/svg" viewBox="0 0 288.2 288.2">
  <path d="M163.5 285.1h19.4v-19.4c0-5.4 4.3-9.7 9.7-9.7h58.2c5.4 0 9.7 4.3 9.7 9.7v19.4h19.4v-19.4c0-16.1-13-29.1-29.1-29.1h-58.2c-16.1 0-29.1 13-29.1 29.1v19.4zm58.1-58.2c-21.4 0-38.8-17.4-38.8-38.8s17.4-38.8 38.8-38.8 38.8 17.4 38.8 38.8c0 21.5-17.4 38.8-38.8 38.8m0-58.1c-10.7 0-19.4 8.7-19.4 19.4s8.7 19.4 19.4 19.4 19.4-8.7 19.4-19.4-8.7-19.4-19.4-19.4M8.4 285.1h19.4v-19.4c0-5.4 4.3-9.7 9.7-9.7h58.2c5.4 0 9.7 4.3 9.7 9.7v19.4h19.4v-19.4c0-16.1-13-29.1-29.1-29.1H37.5c-16.1 0-29.1 13-29.1 29.1v19.4zm58.1-58.2c-21.4 0-38.8-17.4-38.8-38.8s17.4-38.8 38.8-38.8 38.8 17.4 38.8 38.8c0 21.5-17.3 38.8-38.8 38.8m0-58.1c-10.7 0-19.4 8.7-19.4 19.4s8.7 19.4 19.4 19.4 19.4-8.7 19.4-19.4-8.6-19.4-19.4-19.4m97-29.1h19.4v-19.4c0-5.4 4.3-9.7 9.7-9.7h58.2c5.4 0 9.7 4.3 9.7 9.7v19.4h19.4v-19.4c0-16.1-13-29.1-29.1-29.1h-58.2c-16.1 0-29.1 13-29.1 29.1v19.4zm58.1-58.1c-21.4 0-38.8-17.4-38.8-38.8S200.2 4 221.6 4s38.8 17.4 38.8 38.8-17.4 38.7-38.8 38.8m0-58.2c-10.7 0-19.4 8.7-19.4 19.4s8.7 19.4 19.4 19.4S241 53.5 241 42.8s-8.7-19.4-19.4-19.4M8.4 139.7h19.4v-19.4c0-5.4 4.3-9.7 9.7-9.7h58.2c5.4 0 9.7 4.3 9.7 9.7v19.4h19.4v-19.4c0-16.1-13-29.1-29.1-29.1H37.5c-16.1 0-29.1 13-29.1 29.1v19.4zm58.1-58.1c-21.4 0-38.8-17.4-38.8-38.8S45.1 4 66.5 4s38.8 17.4 38.8 38.8-17.4 38.7-38.8 38.8m0-58.2c-10.7 0-19.4 8.7-19.4 19.4s8.7 19.4 19.4 19.4 19.4-8.7 19.4-19.4-8.6-19.4-19.4-19.4"/>
</svg>